<svg width="1440" height="439" viewBox="0 0 1440 439" fill="none" xmlns="http://www.w3.org/2000/svg">
<g clip-path="url(#clip0_577_1725)">
<rect width="1440" height="439" fill="#11100B"/>
<rect x="76" y="27" width="340" height="86" rx="20" fill="#232119"/>
<rect x="-280" y="27" width="340" height="86" rx="20" fill="#232119"/>
<rect x="432" y="27" width="340" height="86" rx="20" fill="#232119"/>
<rect x="789" y="27" width="340" height="86" rx="20" fill="#232119"/>
<rect x="1145" y="27" width="340" height="86" rx="20" fill="#232119"/>
<rect x="-124" y="127" width="340" height="86" rx="20" fill="#232119"/>
<rect x="232" y="127" width="340" height="86" rx="20" fill="#232119"/>
<rect x="588" y="127" width="340" height="86" rx="20" fill="#232119"/>
<rect x="944" y="127" width="340" height="86" rx="20" fill="#232119"/>
<rect x="1300" y="127" width="340" height="86" rx="20" fill="#232119"/>
<rect x="105" y="227" width="340" height="86" rx="20" fill="#232119"/>
<rect x="-251" y="227" width="340" height="86" rx="20" fill="#232119"/>
<rect x="461" y="227" width="340" height="86" rx="20" fill="#232119"/>
<rect x="817" y="227" width="340" height="86" rx="20" fill="#232119"/>
<rect x="1173" y="227" width="340" height="86" rx="20" fill="#232119"/>
<rect x="286" y="327" width="340" height="86" rx="20" fill="#232119"/>
<rect x="-70" y="327" width="340" height="86" rx="20" fill="#232119"/>
<rect x="642" y="327" width="340" height="86" rx="20" fill="#232119"/>
<rect x="999" y="327" width="340" height="86" rx="20" fill="#232119"/>
<rect x="1355" y="327" width="340" height="86" rx="20" fill="#232119"/>
</g>
<defs>
<clipPath id="clip0_577_1725">
<rect width="1440" height="439" fill="white"/>
</clipPath>
</defs>
</svg>
