<svg width="84" height="30" viewBox="0 0 84 30" fill="none" xmlns="http://www.w3.org/2000/svg">
<path d="M10.4482 29L10.0167 24.1303H6.37987L5.94838 29H0.616412L3.42109 0.645036H12.9755L15.7802 29H10.4482ZM6.74971 19.5073H9.64685L8.44485 5.63798H7.95172L6.74971 19.5073ZM25.1506 0.645036C29.6812 0.645036 30.6058 2.34017 30.6058 6.7167V16.98C30.6058 21.3565 29.6812 23.0516 25.1506 23.0516H22.839V29H17.3221V0.645036H25.1506ZM25.2122 16.9491V6.74752C25.2122 5.60716 24.904 5.23731 23.8561 5.23731H22.839V18.4594H23.8561C24.904 18.4594 25.2122 18.0895 25.2122 16.9491ZM39.2881 29.339C35.2814 29.339 32.6 27.8288 32.6 23.2674V6.37767C32.6 1.81622 35.2814 0.30601 39.2881 0.30601C43.2948 0.30601 45.9762 1.81622 45.9762 6.37767V23.2674C45.9762 27.8288 43.2948 29.339 39.2881 29.339ZM39.2881 24.7159C39.9353 24.7159 40.4593 24.3769 40.4593 23.2365V6.40849C40.4593 5.26813 39.9353 4.9291 39.2881 4.9291C38.6409 4.9291 38.1169 5.26813 38.1169 6.40849V23.2365C38.1169 24.3769 38.6409 24.7159 39.2881 24.7159ZM53.3587 24.3769H57.3962V29H47.8418V0.645036H53.3587V24.3769ZM64.7719 24.3769H68.8094V29H59.255V0.645036H64.7719V24.3769ZM77.0313 29.339C73.0246 29.339 70.3432 27.8288 70.3432 23.2674V6.37767C70.3432 1.81622 73.0246 0.30601 77.0313 0.30601C81.038 0.30601 83.7194 1.81622 83.7194 6.37767V23.2674C83.7194 27.8288 81.038 29.339 77.0313 29.339ZM77.0313 24.7159C77.6785 24.7159 78.2025 24.3769 78.2025 23.2365V6.40849C78.2025 5.26813 77.6785 4.9291 77.0313 4.9291C76.3841 4.9291 75.8601 5.26813 75.8601 6.40849V23.2365C75.8601 24.3769 76.3841 24.7159 77.0313 24.7159Z" fill="#11100B"/>
</svg>
