<svg width="243" height="243" viewBox="0 0 243 243" fill="none" xmlns="http://www.w3.org/2000/svg">
<path d="M214.243 101.892L214.248 101.888L189.538 82.8156V44.1113H139.394L134.551 40.3734C126.446 34.1172 115.14 34.1172 107.035 40.3734L102.25 44.1113H56.0543H53.0069L53.0068 82.5834L28.2973 101.888L28.302 101.892C25.3674 103.963 23.4453 107.374 23.4453 111.239V113.69V195.244C23.4453 201.563 28.5679 206.685 34.8869 206.685H133.242H207.658C213.977 206.685 219.1 201.563 219.1 195.244V111.239C219.1 107.374 217.178 103.963 214.243 101.892Z" fill="#11100B"/>
<path d="M134.552 40.3732C126.447 34.117 115.141 34.117 107.036 40.3732L102.251 44.1111H139.395L134.552 40.3732Z" fill="#11100B"/>
<path d="M189.538 82.8155V111.662V115.143V121.193L214.243 101.892L214.248 101.888L189.538 82.8155Z" fill="#11100B"/>
<path d="M53.0065 102.76V82.5833L28.2969 101.888L28.3016 101.892L53.1155 121.045C53.048 120.992 53.0065 120.96 53.0065 120.96V102.76Z" fill="#11100B"/>
<g filter="url(#filter0_d_998_1772)">
<path d="M139.394 44.1112H102.25H56.0543H53.0068V120.96C53.0068 120.96 58.4064 125.129 65.6824 130.746C65.7434 130.793 65.8062 130.841 65.8674 130.889C68.2919 132.76 70.9191 134.788 73.6215 136.874C76.4376 139.048 79.3334 141.284 82.1661 143.47C82.9335 144.063 83.6962 144.651 84.4512 145.234C86.7164 146.983 88.9127 148.678 90.9624 150.26C91.9873 151.051 92.9754 151.814 93.9171 152.541C94.231 152.783 94.5398 153.021 94.843 153.255C95.4494 153.723 96.0338 154.174 96.593 154.606C97.1523 155.038 97.6866 155.45 98.1931 155.841C98.6996 156.232 99.1781 156.601 99.626 156.946C101.849 158.662 103.311 159.79 103.663 160.06C103.665 160.062 103.67 160.065 103.672 160.067C103.674 160.068 103.675 160.069 103.677 160.07C103.826 160.186 103.975 160.302 104.123 160.418C104.422 160.652 104.718 160.889 105.011 161.125C105.305 161.362 105.597 161.599 105.889 161.836C109.683 164.911 113.463 167.868 120.88 168.082C121.165 168.091 121.456 168.095 121.752 168.095C122.178 168.095 122.604 168.078 123.029 168.054C126.473 167.886 129.232 167.057 131.556 165.907C132.301 165.539 133.002 165.138 133.669 164.718C134.002 164.507 134.327 164.292 134.644 164.073C135.12 163.745 135.578 163.408 136.024 163.069C137.361 162.051 138.578 161.005 139.779 160.067C140.301 159.659 141.452 158.76 143.049 157.512C143.606 157.078 144.216 156.601 144.876 156.085C145.675 155.461 146.543 154.783 147.472 154.057C148.978 152.881 150.637 151.585 152.404 150.204C153.124 149.642 153.857 149.069 154.608 148.482C155.175 148.039 155.747 147.592 156.328 147.138C156.683 146.861 157.04 146.582 157.399 146.301C158.836 145.179 160.307 144.03 161.791 142.87C162.162 142.58 162.534 142.29 162.906 141.999C163.65 141.418 164.397 140.834 165.142 140.252C165.888 139.67 166.632 139.088 167.374 138.509C167.503 138.408 167.631 138.308 167.76 138.207C168.599 137.552 169.432 136.901 170.257 136.256L171.53 135.261C172.213 134.728 172.887 134.201 173.552 133.682C173.662 133.596 173.774 133.509 173.883 133.423C174.638 132.834 175.373 132.259 176.098 131.693C176.335 131.508 176.573 131.321 176.806 131.14C176.848 131.107 176.892 131.072 176.934 131.039C176.958 131.021 176.98 131.004 177.003 130.986C177.964 130.235 178.893 129.51 179.779 128.817C180.096 128.57 180.406 128.327 180.711 128.089C180.99 127.871 181.265 127.656 181.534 127.446C181.748 127.279 181.954 127.117 182.161 126.956C183.506 125.905 184.71 124.964 185.739 124.161L186.206 123.796C187.781 122.566 188.871 121.714 189.312 121.369L189.45 121.262C189.503 121.22 189.538 121.193 189.538 121.193V115.143V111.662V82.8155V44.1112H139.394Z" fill="#EAE3D1"/>
</g>
<path d="M140.575 61.4485H71.0898V69.5754H140.575V61.4485Z" fill="#11100B"/>
<path d="M171.863 74.1806H71.0898V75.806H171.863V74.1806Z" fill="#11100B"/>
<path d="M171.863 78.7858H71.0898V80.4111H171.863V78.7858Z" fill="#11100B"/>
<path d="M171.863 83.391H71.0898V85.0165H171.863V83.391Z" fill="#11100B"/>
<path d="M171.863 87.9963H71.0898V89.6218H171.863V87.9963Z" fill="#11100B"/>
<path d="M138.001 92.6014H71.0898V94.2268H138.001V92.6014Z" fill="#11100B"/>
<path d="M134.208 168.095L211.955 202.585L178.364 181.997L134.208 168.095Z" fill="#11100B"/>
<path d="M77.6496 181.71C76.5791 180.94 102.928 170.536 101.878 169.739L105.831 168.095L101.281 169.56C96.5886 169.001 70.1939 176.026 68.2886 174.424C59.211 166.793 51.0144 158.138 43.9755 148.573C35.9555 137.676 29.4555 125.792 23.4453 113.69V195.243C23.4453 201.562 28.5679 206.685 34.8869 206.685H133.242C113.388 201.692 94.3381 193.727 77.6496 181.71Z" fill="#11100B"/>
<path d="M161.838 151.386L211.954 106.103L139.778 163.576L161.838 151.386Z" fill="#11100B"/>
<path d="M80.3422 151.386L102.402 163.576L30.2266 106.103L80.3422 151.386Z" fill="#11100B"/>
<path d="M184.866 98.0194V47.2265H131.229L177.552 54.1344L184.866 98.0194Z" fill="#EAE3D1"/>
<path d="M65.6824 130.746C65.7434 130.793 65.8062 130.841 65.8674 130.889C68.2919 132.76 70.9191 134.788 73.6215 136.874C76.4376 139.048 79.3334 141.284 82.1661 143.47C82.9335 144.063 83.6962 144.651 84.4512 145.234C86.7164 146.983 88.9127 148.678 90.9624 150.26C91.9873 151.051 92.9754 151.814 93.9171 152.541C94.231 152.783 94.5398 153.021 94.843 153.255C95.4494 153.723 96.0338 154.174 96.593 154.606C97.1523 155.038 97.6866 155.45 98.1931 155.841C98.6996 156.232 99.1781 156.601 99.626 156.946C101.849 158.662 103.311 159.79 103.663 160.06C103.665 160.062 103.67 160.065 103.672 160.067C103.674 160.068 103.675 160.069 103.677 160.07C103.826 160.186 103.975 160.301 104.123 160.418C104.422 160.652 104.718 160.889 105.011 161.125C105.305 161.362 105.597 161.599 105.889 161.836C109.683 164.911 113.463 167.868 120.88 168.082C121.165 168.091 121.456 168.095 121.752 168.095C122.178 168.095 122.604 168.078 123.029 168.054C126.473 167.886 129.232 167.057 131.556 165.907C132.301 165.539 133.002 165.138 133.669 164.717C134.002 164.507 134.327 164.292 134.644 164.073C135.12 163.745 135.578 163.408 136.024 163.069C137.361 162.051 138.578 161.005 139.779 160.067C140.301 159.659 141.452 158.76 143.049 157.512C143.606 157.078 144.216 156.601 144.876 156.085C145.675 155.461 146.543 154.783 147.472 154.057C148.978 152.881 150.637 151.585 152.404 150.204C153.124 149.642 153.857 149.069 154.608 148.482C155.175 148.039 155.747 147.592 156.328 147.138C156.683 146.861 157.04 146.582 157.399 146.301C158.836 145.179 160.307 144.029 161.791 142.87C162.162 142.58 162.534 142.29 162.906 141.999C163.65 141.418 164.397 140.834 165.142 140.252C165.888 139.67 166.632 139.088 167.374 138.508C167.503 138.408 167.631 138.307 167.76 138.207C168.599 137.552 169.432 136.901 170.257 136.256L171.53 135.261C172.213 134.728 172.887 134.201 173.552 133.682C173.662 133.596 173.774 133.509 173.883 133.423C174.638 132.834 175.373 132.259 176.098 131.693C176.335 131.508 176.573 131.321 176.806 131.14C176.848 131.107 176.892 131.072 176.934 131.039C176.958 131.021 176.98 131.004 177.003 130.986C177.964 130.235 178.893 129.509 179.779 128.817C180.096 128.57 180.406 128.327 180.711 128.089C180.99 127.871 181.265 127.656 181.535 127.445C181.748 127.279 181.954 127.117 182.161 126.956C183.506 125.905 184.71 124.964 185.739 124.161L186.206 123.796C187.781 122.566 188.871 121.714 189.312 121.369L189.45 121.262C189.503 121.22 189.538 121.193 189.538 121.193V115.143C179.279 123.159 146.424 148.827 142.827 151.637C138.558 154.973 134.072 159.665 124.799 159.665C115.32 159.665 111.563 155.359 106.72 151.637C104.556 149.974 56.0543 112.53 56.0543 112.53V44.1112H53.0068V120.96C53.0068 120.96 58.4064 125.129 65.6824 130.746Z" fill="#EAE3D1"/>
<path d="M189.537 111.662V115.143V121.193L214.242 101.892L214.247 101.888L208.11 97.1517L189.537 111.662Z" fill="#11100B"/>
<path d="M53.0075 120.96V102.76L40.0166 92.7326L28.2979 101.888L28.3025 101.892L53.1165 121.044C53.0489 120.993 53.0075 120.96 53.0075 120.96Z" fill="#11100B"/>
<path d="M26.7979 200.96L101.878 169.739L105.832 168.095L101.281 169.56L63.5042 181.726L26.7979 200.96Z" fill="#11100B"/>
<g clip-path="url(#clip0_998_1772)">
<path d="M136.518 104.805L115.058 127.273L102.37 117.205L96.5156 121.854L116.027 137.349L143.351 109.454L136.518 104.805Z" fill="black"/>
</g>
<defs>
<filter id="filter0_d_998_1772" x="35.3746" y="31.989" width="171.796" height="159.248" filterUnits="userSpaceOnUse" color-interpolation-filters="sRGB">
<feFlood flood-opacity="0" result="BackgroundImageFix"/>
<feColorMatrix in="SourceAlpha" type="matrix" values="0 0 0 0 0 0 0 0 0 0 0 0 0 0 0 0 0 0 127 0" result="hardAlpha"/>
<feOffset dy="5.51009"/>
<feGaussianBlur stdDeviation="8.81614"/>
<feComposite in2="hardAlpha" operator="out"/>
<feColorMatrix type="matrix" values="0 0 0 0 0 0 0 0 0 0 0 0 0 0 0 0 0 0 0.25 0"/>
<feBlend mode="normal" in2="BackgroundImageFix" result="effect1_dropShadow_998_1772"/>
<feBlend mode="normal" in="SourceGraphic" in2="effect1_dropShadow_998_1772" result="shape"/>
</filter>
<clipPath id="clip0_998_1772">
<rect width="46.8357" height="37.1931" fill="white" transform="translate(96.5156 102.625)"/>
</clipPath>
</defs>
</svg>
